<svg xmlns="http://www.w3.org/2000/svg" xmlns:xlink="http://www.w3.org/1999/xlink" width="434.575" height="206.532" viewBox="0 0 114.981 54.645"><defs><linearGradient id="a" x1="129" x2="129" y1="11" y2="245" gradientUnits="userSpaceOnUse"><stop offset="0" style="stop-color:#494949"/><stop offset="1" style="stop-color:#000"/></linearGradient><linearGradient id="x" x1="94.524" x2="157.156" y1="116.933" y2="179.565" gradientTransform="matrix(.49587 0 0 .49587 -292.085 295.4)" gradientUnits="userSpaceOnUse"><stop offset="0" style="stop-color:#093"/><stop offset=".455" style="stop-color:#006a00"/><stop offset="1" style="stop-color:#033"/></linearGradient><linearGradient id="b"><stop offset="0" style="stop-color:#000;stop-opacity:1"/><stop offset="1" style="stop-color:#000;stop-opacity:0"/></linearGradient><linearGradient id="d"><stop offset="0" style="stop-color:#fff;stop-opacity:1"/><stop offset="1" style="stop-color:#fff;stop-opacity:0"/></linearGradient><linearGradient id="f"><stop offset="0" style="stop-color:#eeeeec;stop-opacity:1"/><stop offset="1" style="stop-color:#eeeeec;stop-opacity:0"/></linearGradient><linearGradient id="e"><stop offset="0" style="stop-color:#888a85;stop-opacity:1"/><stop offset="1" style="stop-color:#d3d7cf;stop-opacity:1"/></linearGradient><linearGradient id="c"><stop offset="0" style="stop-color:#d3d7cf;stop-opacity:1"/><stop offset="1" style="stop-color:#888a85;stop-opacity:1"/></linearGradient><linearGradient xlink:href="#a" id="g" x1="129" x2="129" y1="11" y2="245" gradientTransform="translate(-110.52 130.54)scale(.23151)" gradientUnits="userSpaceOnUse"/><linearGradient xlink:href="#b" id="h" x1="20.781" x2="20.813" y1="24.594" y2="23.531" gradientUnits="userSpaceOnUse"/><linearGradient xlink:href="#a" id="i" x1="129" x2="129" y1="11" y2="245" gradientTransform="translate(-110.52 130.54)scale(.23151)" gradientUnits="userSpaceOnUse"/><linearGradient xlink:href="#b" id="j" x1="20.781" x2="20.813" y1="24.594" y2="23.531" gradientUnits="userSpaceOnUse"/><linearGradient xlink:href="#a" id="k" x1="129" x2="129" y1="11" y2="245" gradientTransform="translate(-110.52 130.54)scale(.23151)" gradientUnits="userSpaceOnUse"/><linearGradient xlink:href="#b" id="l" x1="20.781" x2="20.813" y1="24.594" y2="23.531" gradientUnits="userSpaceOnUse"/><linearGradient xlink:href="#c" id="m" x1="14.496" x2="26.737" y1="29.88" y2="42.564" gradientTransform="translate(36.844 36.71)" gradientUnits="userSpaceOnUse"/><linearGradient xlink:href="#d" id="n" x1="14.375" x2="30.438" y1="31.063" y2="44.063" gradientUnits="userSpaceOnUse"/><linearGradient xlink:href="#e" id="p" x1="16.794" x2="22.053" y1="30.676" y2="37.128" gradientTransform="translate(36.844 36.71)" gradientUnits="userSpaceOnUse"/><linearGradient xlink:href="#f" id="q" x1="20.807" x2="17.449" y1="36.825" y2="30.901" gradientUnits="userSpaceOnUse"/><linearGradient xlink:href="#f" id="r" x1="17.66" x2="23.032" y1="36.68" y2="31.111" gradientUnits="userSpaceOnUse"/><linearGradient id="t" x1="139.866" x2="202.497" y1="75.714" y2="138.345" gradientTransform="matrix(.49587 0 0 .49587 -292.085 289.05)" gradientUnits="userSpaceOnUse"><stop offset="0" style="stop-color:#e14e30"/><stop offset=".472" style="stop-color:#ff5b00"/><stop offset="1" style="stop-color:#c51700"/></linearGradient><linearGradient id="v" x1="50.099" x2="112.73" y1="75.943" y2="138.574" gradientTransform="matrix(.49587 0 0 .49587 -292.085 289.05)" gradientUnits="userSpaceOnUse"><stop offset="0" style="stop-color:#900"/><stop offset=".455" style="stop-color:#7c0000"/><stop offset="1" style="stop-color:#600000"/></linearGradient><radialGradient xlink:href="#b" id="o" cx="42.5" cy="34.5" r="8.688" fx="42.5" fy="34.5" gradientTransform="matrix(1 0 0 .9964 13.844 36.833)" gradientUnits="userSpaceOnUse"/><marker id="s" orient="auto" refX="0" refY="0" style="overflow:visible"><path d="M8.719 4.034-2.207.016 8.719-4.002c-1.746 2.372-1.736 5.618 0 8.036z" style="fill:#000;fill-opacity:1;fill-rule:evenodd;stroke:#000;stroke-width:.625;stroke-linejoin:round;stroke-opacity:1" transform="matrix(-.3 0 0 -.3 .69 0)"/></marker></defs><path d="M-227.237 759.675h115.42v55.013h-115.42z" style="opacity:.98000004;fill:#f9f9f9;fill-opacity:1;stroke:none;stroke-width:1;stroke-linejoin:round;stroke-miterlimit:4;stroke-dasharray:none;stroke-opacity:1" transform="translate(227.237 -759.684)"/><path d="m-174.472 790.497-.039 10.223" style="fill:gray;fill-rule:evenodd;stroke:gray;stroke-width:.99999994;stroke-linecap:butt;stroke-linejoin:miter;stroke-miterlimit:4;stroke-dasharray:none;stroke-opacity:1" transform="translate(227.237 -759.684)"/><g style="stroke-width:3.02774787"><g style="stroke-width:3.02774787"><g style="stroke-width:3.02774787"><path d="M-100.334 134.128a3.94 3.94 0 0 0-3.935 3.935v46.302a3.94 3.94 0 0 0 3.935 3.936h40.746a3.94 3.94 0 0 0 3.936-3.936v-46.302a3.94 3.94 0 0 0-3.936-3.935z" style="opacity:.2;stroke-width:.70095515" transform="matrix(.33028 0 0 .33028 103.647 -22.437)"/><path d="M-100.797 133.665a3.94 3.94 0 0 0-3.935 3.935v46.302a3.94 3.94 0 0 0 3.935 3.936h40.746a3.94 3.94 0 0 0 3.936-3.936V137.6a3.94 3.94 0 0 0-3.936-3.935z" style="opacity:.2;stroke-width:.70095515" transform="matrix(.33028 0 0 .33028 103.647 -22.437)"/><path d="M-101.26 133.433a3.94 3.94 0 0 0-3.935 3.936v46.302a3.94 3.94 0 0 0 3.935 3.936h40.746a3.94 3.94 0 0 0 3.936-3.936v-46.302a3.94 3.94 0 0 0-3.936-3.936z" style="opacity:.2;stroke-width:.70095515" transform="matrix(.33028 0 0 .33028 103.647 -22.437)"/><path d="M-101.028 133.086a3.94 3.94 0 0 0-3.936 3.936v46.302a3.94 3.94 0 0 0 3.936 3.935h40.746a3.94 3.94 0 0 0 3.935-3.935v-46.302a3.94 3.94 0 0 0-3.935-3.936z" style="fill:url(#g);stroke-width:.70095515" transform="matrix(.33028 0 0 .33028 103.647 -22.437)"/><path d="M-104.038 183.324a2.778 2.778 0 0 0 2.778 2.778h40.746a2.778 2.778 0 0 0 2.778-2.778v-46.302a2.778 2.778 0 0 0-2.778-2.779h-40.746a2.778 2.778 0 0 0-2.778 2.779z" style="fill:#fff;stroke-width:.70095515" transform="matrix(.33028 0 0 .33028 103.647 -22.437)"/><path d="M-110.52 130.539h59.267v59.267h-59.267z" style="fill:none;stroke-width:.70095515" transform="matrix(.33028 0 0 .33028 103.647 -22.437)"/><path d="M11.781 19.5c-.179 0-.27.018-.304.027-.034.01-.014-.001-.043.022-.006.004-.109.1-.211.396L9.803 24.5H37.12l-1.43-4.344c-.191-.476-.262-.517-.314-.552-.07-.048-.143-.104-.565-.104Z" style="color:#000;display:block;overflow:visible;visibility:visible;opacity:.15;fill:none;stroke:url(#h);stroke-width:3.02775049;stroke-linecap:butt;stroke-linejoin:miter;stroke-miterlimit:4;stroke-dashoffset:0;stroke-opacity:1;marker:none" transform="matrix(.07646 0 0 .07646 67.144 20.754)"/><path d="M-104.038 183.324a2.778 2.778 0 0 0 2.778 2.778h40.746a2.778 2.778 0 0 0 2.778-2.778v-46.302a2.778 2.778 0 0 0-2.778-2.779h-40.746a2.778 2.778 0 0 0-2.778 2.779z" style="fill:#fff;stroke-width:.70095515" transform="matrix(.33028 0 0 .33028 103.647 -22.437)"/></g><g style="stroke-width:3.02774787" transform="matrix(.33028 0 0 .33028 90.713 -37.542)"><rect width="38.046" height="22.207" x="-61.419" y="-227.973" rx="3.593" ry="4.043" style="fill:#ff8c00;fill-opacity:1;stroke:none;stroke-width:.37727916" transform="scale(1 -1)"/><text xml:space="preserve" x="-59.832" y="222.152" style="font-style:normal;font-variant:normal;font-weight:400;font-stretch:condensed;font-size:13.86755466px;line-height:100%;font-family:Impact;-inkscape-font-specification:&quot;Impact, Condensed&quot;;font-variant-ligatures:normal;font-variant-caps:normal;font-variant-numeric:normal;font-feature-settings:normal;text-align:start;letter-spacing:0;word-spacing:0;writing-mode:lr-tb;text-anchor:start;fill:#fff;fill-opacity:1;stroke:none;stroke-width:.53509021px;stroke-linecap:butt;stroke-linejoin:miter;stroke-opacity:1"><tspan x="-59.832" y="222.152" style="font-style:normal;font-variant:normal;font-weight:400;font-stretch:condensed;font-size:13.86755466px;font-family:Impact;-inkscape-font-specification:&quot;Impact, Condensed&quot;;font-variant-ligatures:normal;font-variant-caps:normal;font-variant-numeric:normal;font-feature-settings:normal;text-align:start;writing-mode:lr-tb;text-anchor:start;fill:#fff;stroke-width:.53509021px">WNDB</tspan></text></g></g><g style="stroke-width:3.02774787"><g style="stroke-width:3.02774787"><path d="M-100.334 134.128a3.94 3.94 0 0 0-3.935 3.935v46.302a3.94 3.94 0 0 0 3.935 3.936h40.746a3.94 3.94 0 0 0 3.936-3.936v-46.302a3.94 3.94 0 0 0-3.936-3.935z" style="opacity:.2;stroke-width:.70095515" transform="matrix(.33028 0 0 .33028 106.847 -19.937)"/><path d="M-100.797 133.665a3.94 3.94 0 0 0-3.935 3.935v46.302a3.94 3.94 0 0 0 3.935 3.936h40.746a3.94 3.94 0 0 0 3.936-3.936V137.6a3.94 3.94 0 0 0-3.936-3.935z" style="opacity:.2;stroke-width:.70095515" transform="matrix(.33028 0 0 .33028 106.847 -19.937)"/><path d="M-101.26 133.433a3.94 3.94 0 0 0-3.935 3.936v46.302a3.94 3.94 0 0 0 3.935 3.936h40.746a3.94 3.94 0 0 0 3.936-3.936v-46.302a3.94 3.94 0 0 0-3.936-3.936z" style="opacity:.2;stroke-width:.70095515" transform="matrix(.33028 0 0 .33028 106.847 -19.937)"/><path d="M-101.028 133.086a3.94 3.94 0 0 0-3.936 3.936v46.302a3.94 3.94 0 0 0 3.936 3.935h40.746a3.94 3.94 0 0 0 3.935-3.935v-46.302a3.94 3.94 0 0 0-3.935-3.936z" style="fill:url(#i);stroke-width:.70095515" transform="matrix(.33028 0 0 .33028 106.847 -19.937)"/><path d="M-104.038 183.324a2.778 2.778 0 0 0 2.778 2.778h40.746a2.778 2.778 0 0 0 2.778-2.778v-46.302a2.778 2.778 0 0 0-2.778-2.779h-40.746a2.778 2.778 0 0 0-2.778 2.779z" style="fill:#fff;stroke-width:.70095515" transform="matrix(.33028 0 0 .33028 106.847 -19.937)"/><path d="M-110.52 130.539h59.267v59.267h-59.267z" style="fill:none;stroke-width:.70095515" transform="matrix(.33028 0 0 .33028 106.847 -19.937)"/><path d="M11.781 19.5c-.179 0-.27.018-.304.027-.034.01-.014-.001-.043.022-.006.004-.109.1-.211.396L9.803 24.5H37.12l-1.43-4.344c-.191-.476-.262-.517-.314-.552-.07-.048-.143-.104-.565-.104Z" style="color:#000;display:block;overflow:visible;visibility:visible;opacity:.15;fill:none;stroke:url(#j);stroke-width:3.02775049;stroke-linecap:butt;stroke-linejoin:miter;stroke-miterlimit:4;stroke-dashoffset:0;stroke-opacity:1;marker:none" transform="matrix(.07646 0 0 .07646 70.345 23.254)"/><path d="M-104.038 183.324a2.778 2.778 0 0 0 2.778 2.778h40.746a2.778 2.778 0 0 0 2.778-2.778v-46.302a2.778 2.778 0 0 0-2.778-2.779h-40.746a2.778 2.778 0 0 0-2.778 2.779z" style="fill:#fff;stroke-width:.70095515" transform="matrix(.33028 0 0 .33028 106.847 -19.937)"/></g><g style="stroke-width:3.02774787" transform="matrix(.33028 0 0 .33028 93.914 -35.042)"><rect width="38.046" height="22.207" x="-61.419" y="-227.973" rx="3.593" ry="4.043" style="fill:#ff8c00;fill-opacity:1;stroke:none;stroke-width:.37727916" transform="scale(1 -1)"/><text xml:space="preserve" x="-59.832" y="222.152" style="font-style:normal;font-variant:normal;font-weight:400;font-stretch:condensed;font-size:13.86755466px;line-height:100%;font-family:Impact;-inkscape-font-specification:&quot;Impact, Condensed&quot;;font-variant-ligatures:normal;font-variant-caps:normal;font-variant-numeric:normal;font-feature-settings:normal;text-align:start;letter-spacing:0;word-spacing:0;writing-mode:lr-tb;text-anchor:start;fill:#fff;fill-opacity:1;stroke:none;stroke-width:.53509021px;stroke-linecap:butt;stroke-linejoin:miter;stroke-opacity:1"><tspan x="-59.832" y="222.152" style="font-style:normal;font-variant:normal;font-weight:400;font-stretch:condensed;font-size:13.86755466px;font-family:Impact;-inkscape-font-specification:&quot;Impact, Condensed&quot;;font-variant-ligatures:normal;font-variant-caps:normal;font-variant-numeric:normal;font-feature-settings:normal;text-align:start;writing-mode:lr-tb;text-anchor:start;fill:#fff;stroke-width:.53509021px">WNDB</tspan></text></g></g><g style="stroke-width:3.02774787"><g style="stroke-width:3.02774787"><path d="M-100.334 134.128a3.94 3.94 0 0 0-3.935 3.935v46.302a3.94 3.94 0 0 0 3.935 3.936h40.746a3.94 3.94 0 0 0 3.936-3.936v-46.302a3.94 3.94 0 0 0-3.936-3.935z" style="opacity:.2;stroke-width:.70095515" transform="matrix(.33028 0 0 .33028 110.517 -17.14)"/><path d="M-100.797 133.665a3.94 3.94 0 0 0-3.935 3.935v46.302a3.94 3.94 0 0 0 3.935 3.936h40.746a3.94 3.94 0 0 0 3.936-3.936V137.6a3.94 3.94 0 0 0-3.936-3.935z" style="opacity:.2;stroke-width:.70095515" transform="matrix(.33028 0 0 .33028 110.517 -17.14)"/><path d="M-101.26 133.433a3.94 3.94 0 0 0-3.935 3.936v46.302a3.94 3.94 0 0 0 3.935 3.936h40.746a3.94 3.94 0 0 0 3.936-3.936v-46.302a3.94 3.94 0 0 0-3.936-3.936z" style="opacity:.2;stroke-width:.70095515" transform="matrix(.33028 0 0 .33028 110.517 -17.14)"/><path d="M-101.028 133.086a3.94 3.94 0 0 0-3.936 3.936v46.302a3.94 3.94 0 0 0 3.936 3.935h40.746a3.94 3.94 0 0 0 3.935-3.935v-46.302a3.94 3.94 0 0 0-3.935-3.936z" style="fill:url(#k);stroke-width:.70095515" transform="matrix(.33028 0 0 .33028 110.517 -17.14)"/><path d="M-104.038 183.324a2.778 2.778 0 0 0 2.778 2.778h40.746a2.778 2.778 0 0 0 2.778-2.778v-46.302a2.778 2.778 0 0 0-2.778-2.779h-40.746a2.778 2.778 0 0 0-2.778 2.779z" style="fill:#fff;stroke-width:.70095515" transform="matrix(.33028 0 0 .33028 110.517 -17.14)"/><path d="M-110.52 130.539h59.267v59.267h-59.267z" style="fill:none;stroke-width:.70095515" transform="matrix(.33028 0 0 .33028 110.517 -17.14)"/><path d="M11.781 19.5c-.179 0-.27.018-.304.027-.034.01-.014-.001-.043.022-.006.004-.109.1-.211.396L9.803 24.5H37.12l-1.43-4.344c-.191-.476-.262-.517-.314-.552-.07-.048-.143-.104-.565-.104Z" style="color:#000;display:block;overflow:visible;visibility:visible;opacity:.15;fill:none;stroke:url(#l);stroke-width:3.02775049;stroke-linecap:butt;stroke-linejoin:miter;stroke-miterlimit:4;stroke-dashoffset:0;stroke-opacity:1;marker:none" transform="matrix(.07646 0 0 .07646 74.015 26.05)"/><path d="M-104.038 183.324a2.778 2.778 0 0 0 2.778 2.778h40.746a2.778 2.778 0 0 0 2.778-2.778v-46.302a2.778 2.778 0 0 0-2.778-2.779h-40.746a2.778 2.778 0 0 0-2.778 2.779z" style="fill:#fff;stroke-width:.70095515" transform="matrix(.33028 0 0 .33028 110.517 -17.14)"/></g><g style="stroke-width:3.02774787" transform="matrix(.33028 0 0 .33028 97.584 -32.246)"><rect width="38.046" height="22.207" x="-61.419" y="-227.973" rx="3.593" ry="4.043" style="fill:#ff8c00;fill-opacity:1;stroke:none;stroke-width:.37727916" transform="scale(1 -1)"/><text xml:space="preserve" x="-59.832" y="222.152" style="font-style:normal;font-variant:normal;font-weight:400;font-stretch:condensed;font-size:13.86755466px;line-height:100%;font-family:Impact;-inkscape-font-specification:&quot;Impact, Condensed&quot;;font-variant-ligatures:normal;font-variant-caps:normal;font-variant-numeric:normal;font-feature-settings:normal;text-align:start;letter-spacing:0;word-spacing:0;writing-mode:lr-tb;text-anchor:start;fill:#fff;fill-opacity:1;stroke:none;stroke-width:.53509021px;stroke-linecap:butt;stroke-linejoin:miter;stroke-opacity:1"><tspan x="-59.832" y="222.152" style="font-style:normal;font-variant:normal;font-weight:400;font-stretch:condensed;font-size:13.86755466px;font-family:Impact;-inkscape-font-specification:&quot;Impact, Condensed&quot;;font-variant-ligatures:normal;font-variant-caps:normal;font-variant-numeric:normal;font-feature-settings:normal;text-align:start;writing-mode:lr-tb;text-anchor:start;fill:#fff;stroke-width:.53509021px">WNDB</tspan></text></g></g></g><g style="stroke-width:3.02774787" transform="rotate(-.193 8316.055 -3258.949)scale(.33028)"><rect width="79.375" height="26.458" x="103.565" y="86.845" ry="8.118" style="opacity:1;fill:#ff8c00;fill-opacity:.89592758;fill-rule:nonzero;stroke:none;stroke-width:.76467842;stroke-linecap:round;stroke-linejoin:round;stroke-miterlimit:4;stroke-dasharray:none;stroke-dashoffset:0;stroke-opacity:1;paint-order:markers fill stroke"/><g style="stroke-width:3.02774787" transform="translate(72.549 43.834)scale(.78573)"><path d="M56 62.21a9.08 9.08 0 0 0-1.438.187h-.03a9.056 9.056 0 0 0-2.407.875l.656 3.125a6.043 6.043 0 0 0-1.281 1.25l-3.094-.625c-.256.484-.49.968-.656 1.5a9.126 9.126 0 0 0-.406 2.344l3.062 1.03c.07.593.202 1.182.438 1.72l-2.125 2.375c.277.441.59.864.937 1.25l.625.593c.388.356.804.685 1.25.97l2.375-2.126c.286.127.564.23.875.313.295.079.612.154.906.187l1 3.031a9.08 9.08 0 0 0 1.438-.187h.031a9.056 9.056 0 0 0 2.406-.875l-.656-3.125a6.043 6.043 0 0 0 1.281-1.25l3.094.625c.257-.484.491-.968.656-1.5.23-.739.376-1.538.407-2.344l-3.063-1.031c-.07-.593-.202-1.18-.437-1.719l2.125-2.375a9.095 9.095 0 0 0-.938-1.25l-.625-.594a9.063 9.063 0 0 0-1.25-.968l-2.375 2.125a5.764 5.764 0 0 0-.875-.313 6.403 6.403 0 0 0-.906-.187zm.125 7c.114-.013.228-.008.344 0 .132.007.273.026.406.062 1.066.286 1.692 1.402 1.406 2.469-.285 1.066-1.402 1.692-2.469 1.406-1.066-.286-1.691-1.402-1.406-2.469a2.011 2.011 0 0 1 1.719-1.469z" style="fill:url(#m);fill-opacity:1;stroke:#2e3436;stroke-width:3.02774835;stroke-linecap:round;stroke-linejoin:miter;stroke-miterlimit:4;stroke-dasharray:none;stroke-opacity:1"/><path d="m18.46 26.486-2.075.557.845 4.041a.969.969 0 0 1-1.146 1.146l-4.072-.845-.559 2.076 3.945 1.307a.969.969 0 0 1 .418 1.564l-2.738 3.07 1.494 1.512 3.096-2.762a.969.969 0 0 1 1.564.418l1.307 3.946 2.076-.559-.845-4.041a.969.969 0 0 1 1.146-1.146l4.072.845.559-2.076-3.945-1.307a.969.969 0 0 1-.418-1.564l2.738-3.07-1.494-1.512-3.096 2.762a.969.969 0 0 1-1.564-.418z" style="fill:none;stroke:url(#n);stroke-width:3.02774835;stroke-linecap:round;stroke-linejoin:miter;stroke-miterlimit:4;stroke-dasharray:none;stroke-opacity:1" transform="translate(36.844 36.71)"/><path d="m55.625 62.553-3 .875.937 4.469a.449.449 0 0 1-.125.406.449.449 0 0 1-.406.125l-4.5-.937-.875 3 4.438 1.468c.149.052.241.192.281.344a.417.417 0 0 1-.094.406l-3.031 3.438 2.125 2.156 3.469-3.062a.417.417 0 0 1 .406-.094c.153.04.292.132.344.281l1.468 4.438 3-.875-.937-4.47a.449.449 0 0 1 .125-.405.449.449 0 0 1 .406-.125l4.5.937.875-3-4.437-1.469c-.15-.051-.242-.19-.282-.343a.417.417 0 0 1 .094-.407l3.031-3.437-2.125-2.156-3.468 3.062a.417.417 0 0 1-.407.094c-.152-.04-.292-.132-.343-.281zm.719 5.656a3.001 3.001 0 0 1 0 6 3.001 3.001 0 0 1 0-6z" style="opacity:.9372549;fill:url(#o);fill-opacity:1;stroke:none;stroke-width:3.02774787"/><path d="M56.344 65.71a5.502 5.502 0 0 0-5.5 5.5c0 3.035 2.464 5.5 5.5 5.5s5.5-2.465 5.5-5.5c0-3.037-2.464-5.5-5.5-5.5zm0 3a2.5 2.5 0 0 1 0 5 2.5 2.5 0 0 1 0-5z" style="fill:url(#p);fill-opacity:1;stroke:none;stroke-width:3.02774787"/><circle cx="19.556" cy="34.587" r="3.16" style="fill:none;stroke:url(#q);stroke-width:3.18911314;stroke-linecap:round;stroke-linejoin:miter;stroke-miterlimit:4;stroke-dasharray:none;stroke-opacity:1" transform="translate(37.777 38.372)scale(.9494)"/><circle cx="19.556" cy="34.587" r="3.16" style="fill:none;stroke:url(#r);stroke-width:1.91346705;stroke-linecap:round;stroke-linejoin:miter;stroke-miterlimit:4;stroke-dasharray:none;stroke-opacity:1" transform="matrix(1.58233 0 0 -1.58234 25.4 125.938)"/></g><text xml:space="preserve" x="132.582" y="103.076" style="font-style:normal;font-variant:normal;font-weight:400;font-stretch:normal;font-size:8.50653076px;line-height:100%;font-family:&quot;Arial Black&quot;;-inkscape-font-specification:&quot;Arial Black, Normal&quot;;font-variant-ligatures:normal;font-variant-caps:normal;font-variant-numeric:normal;font-feature-settings:normal;text-align:start;letter-spacing:0;word-spacing:0;writing-mode:lr-tb;text-anchor:start;fill:#000;fill-opacity:1;stroke:none;stroke-width:.32823056px;stroke-linecap:butt;stroke-linejoin:miter;stroke-opacity:1"><tspan x="132.582" y="103.076" style="stroke-width:.32823056px">parse</tspan></text></g><path d="m-157.858 790.102-33.698-.025" style="fill:none;fill-rule:evenodd;stroke:#000;stroke-width:.99999994;stroke-linecap:butt;stroke-linejoin:miter;stroke-miterlimit:4;stroke-dasharray:none;stroke-opacity:1;marker-end:url(#s)" transform="translate(227.237 -759.684)"/><g style="stroke-width:3.02774787"><path d="m-206.673 318.47-19.165 13.325c-.55.382-.897.996-.897 1.665V351.7c0 .675.333 1.307.89 1.688l19.186 13.096c.7.479 1.623.474 2.32-.01l19.184-13.344c.55-.382.878-1.009.878-1.678v-18.239c0-.676-.335-1.308-.894-1.69l-19.184-13.063a2.044 2.044 0 0 0-2.318.01zM-251.185 318.583l-19.166 13.326c-.549.382-.897.995-.897 1.664v18.24c0 .674.334 1.307.892 1.687l19.185 13.097c.7.478 1.623.474 2.32-.01l19.185-13.345a2.045 2.045 0 0 0 .876-1.678v-18.238c0-.676-.334-1.309-.893-1.69l-19.185-13.064a2.044 2.044 0 0 0-2.317.011z" style="opacity:.2;stroke-width:.2002729" transform="matrix(.33028 0 0 .33028 95.15 -86.402)"/><path d="m-207.695 318.13-19.165 13.324c-.55.383-.897.996-.897 1.666v18.238c0 .675.333 1.308.891 1.687l19.186 13.098c.7.478 1.623.474 2.32-.01l19.184-13.345a2.045 2.045 0 0 0 .877-1.678v-18.238c0-.677-.335-1.309-.893-1.69l-19.186-13.064a2.043 2.043 0 0 0-2.317.011zM-252.207 318.242l-19.166 13.326c-.55.382-.897.995-.897 1.664v18.238c0 .676.334 1.308.891 1.688l19.185 13.097c.7.479 1.624.474 2.32-.01l19.185-13.344c.55-.382.877-1.009.877-1.678v-18.238c0-.676-.335-1.308-.894-1.69l-19.184-13.064a2.044 2.044 0 0 0-2.317.011z" style="opacity:.2;stroke-width:.2002729" transform="matrix(.33028 0 0 .33028 95.15 -86.402)"/><path d="m-208.376 318.13-19.166 13.324c-.548.383-.896.996-.896 1.666v18.238c0 .675.334 1.308.891 1.687l19.185 13.098c.7.478 1.624.474 2.32-.01l19.185-13.345a2.045 2.045 0 0 0 .877-1.678v-18.238c0-.677-.334-1.309-.894-1.69l-19.185-13.064a2.044 2.044 0 0 0-2.317.011z" style="fill:#fff;stroke-width:.2002729" transform="matrix(.33028 0 0 .33028 95.15 -86.402)"/><path d="m-208.376 318.13-19.166 13.324c-.548.383-.896.996-.896 1.666v18.238c0 .675.334 1.308.891 1.687l19.185 13.098c.7.478 1.624.474 2.32-.01l19.185-13.345a2.045 2.045 0 0 0 .877-1.678v-18.238c0-.677-.334-1.309-.894-1.69l-19.185-13.064a2.044 2.044 0 0 0-2.317.011z" style="fill:url(#t);stroke-width:.2002729" transform="matrix(.33028 0 0 .33028 95.15 -86.402)"/><g style="stroke-width:.40388584"><path d="m171.166 62.027 38.689 26.347-38.689 26.911-38.689-26.358z" style="fill:#fff;stroke-width:.40388584" transform="matrix(.16377 0 0 .16377 -1.32 9.065)"/></g><g style="stroke-width:.40388584" transform="matrix(.16377 0 0 .16377 -1.32 9.065)"><linearGradient id="u" x1="385.976" x2="498.108" y1="1061.968" y2="1056.065" gradientTransform="translate(-8.428 -317.487)scale(.384)" gradientUnits="userSpaceOnUse"><stop offset="0" style="stop-color:#ff0"/><stop offset="1" style="stop-color:#ffa700"/></linearGradient><path d="m171.166 62.027 38.689 26.347-38.689 26.911-38.689-26.358z" style="fill:url(#u);stroke-width:.40388584"/></g><g style="stroke-width:.40388584"><path d="m209.855 88.374-38.689 26.911v36.78l38.689-26.91z" style="fill:#ff6d00;stroke-width:.40388584" transform="matrix(.16377 0 0 .16377 -1.32 9.065)"/></g><g style="stroke-width:.40388584"><path d="m132.477 88.873 38.695 26.412-.006 36.78-38.689-26.411z" style="fill:#ffa700;stroke-width:.40388584" transform="matrix(.16377 0 0 .16377 -1.32 9.065)"/></g><path d="m-229.156 345.259-19.166 13.325c-.55.383-.896.996-.896 1.665v18.238c0 .675.333 1.308.891 1.688l19.185 13.097c.7.478 1.623.475 2.32-.01l19.184-13.345a2.045 2.045 0 0 0 .878-1.677V360c0-.675-.336-1.308-.894-1.689l-19.185-13.064a2.044 2.044 0 0 0-2.317.01z" style="opacity:.2;stroke-width:.2002729" transform="matrix(.33028 0 0 .33028 95.15 -86.402)"/><path d="m-252.889 318.242-19.165 13.326c-.55.382-.897.995-.897 1.664v18.238c0 .676.333 1.308.892 1.688l19.185 13.097c.7.479 1.623.474 2.319-.01l19.185-13.344c.549-.382.877-1.009.877-1.678v-18.238c0-.676-.335-1.308-.894-1.69l-19.185-13.064a2.044 2.044 0 0 0-2.317.011z" style="fill:url(#v);stroke-width:.2002729" transform="matrix(.33028 0 0 .33028 95.15 -86.402)"/><g style="stroke-width:.40388584"><path d="m81.399 62.256 38.69 26.347-38.69 26.911-38.691-26.358z" style="fill:#fff;stroke-width:.40388584" transform="matrix(.16377 0 0 .16377 -1.32 9.065)"/></g><g style="stroke-width:.40388584" transform="matrix(.16377 0 0 .16377 -1.32 9.065)"><linearGradient id="w" x1="152.205" x2="264.341" y1="1062.563" y2="1056.66" gradientTransform="translate(-8.428 -317.487)scale(.384)" gradientUnits="userSpaceOnUse"><stop offset="0" style="stop-color:#f99"/><stop offset="1" style="stop-color:#f66"/></linearGradient><path d="m81.399 62.256 38.69 26.347-38.69 26.911-38.691-26.358z" style="fill:url(#w);stroke-width:.40388584"/></g><path d="m-230.178 344.918-19.166 13.325c-.55.382-.897.996-.897 1.665v18.239c0 .674.334 1.307.892 1.687l19.185 13.097c.7.478 1.623.474 2.32-.01l19.184-13.344c.549-.383.877-1.01.877-1.678V359.66c0-.677-.335-1.309-.893-1.69l-19.185-13.063a2.043 2.043 0 0 0-2.317.011z" style="opacity:.2;stroke-width:.2002729" transform="matrix(.33028 0 0 .33028 95.15 -86.402)"/><g style="stroke-width:.40388584"><path d="m120.089 88.603-38.69 26.911v36.781l38.69-26.911z" style="fill:#cf0000;stroke-width:.40388584" transform="matrix(.16377 0 0 .16377 -1.32 9.065)"/></g><g style="stroke-width:.40388584"><path d="m42.708 89.102 38.696 26.412-.005 36.781-38.691-26.413z" style="fill:red;stroke-width:.40388584" transform="matrix(.16377 0 0 .16377 -1.32 9.065)"/></g><path d="m-230.86 344.918-19.165 13.325c-.55.382-.897.996-.897 1.665v18.239c0 .674.334 1.307.891 1.687l19.185 13.097c.7.478 1.623.474 2.32-.01l19.186-13.344c.549-.383.876-1.01.876-1.678V359.66c0-.677-.334-1.309-.894-1.69l-19.185-13.063a2.044 2.044 0 0 0-2.317.011z" style="fill:url(#x);stroke-width:.2002729" transform="matrix(.33028 0 0 .33028 95.15 -86.402)"/><path d="m164.516 129.594-38.691-26.347-38.652 26.873-.039-.027v36.781l38.691 26.412 38.691-26.911z" style="fill:#6c3;stroke-width:.40388584" transform="matrix(.16377 0 0 .16377 -1.32 11.162)"/><g style="stroke-width:.40388584"><path d="m87.134 130.146 38.691-26.899 38.691 26.347-38.691 26.91z" style="fill:#fff;stroke-width:.40388584" transform="matrix(.16377 0 0 .16377 -1.32 11.162)"/></g><g style="stroke-width:.40388584" transform="matrix(.16377 0 0 .16377 -1.32 11.162)"><linearGradient id="y" x1="267.897" x2="380.034" y1="1169.309" y2="1163.406" gradientTransform="translate(-8.428 -317.487)scale(.384)" gradientUnits="userSpaceOnUse"><stop offset="0" style="stop-color:#cfc"/><stop offset=".41" style="stop-color:#9f6"/><stop offset="1" style="stop-color:#6c3"/></linearGradient><path d="m87.134 130.146 38.691-26.899 38.691 26.347-38.691 26.91z" style="fill:url(#y);stroke-width:.40388584"/></g><g style="stroke-width:.40388584"><path d="M164.516 166.375v-36.781l-38.691 26.91v36.782z" style="fill:#093;stroke-width:.40388584" transform="matrix(.16377 0 0 .16377 -1.32 11.162)"/></g><g style="stroke-width:.40388584"><path d="M87.134 166.874v-36.781l38.697 26.411-.006 36.782z" style="fill:#6c3;stroke-width:.40388584" transform="matrix(.16377 0 0 .16377 -1.32 11.162)"/></g></g><text xml:space="preserve" x="-213.746" y="806.905" style="font-style:normal;font-variant:normal;font-weight:400;font-stretch:normal;font-size:3.52777767px;line-height:100%;font-family:&quot;Arial Black&quot;;-inkscape-font-specification:&quot;Arial Black, Normal&quot;;font-variant-ligatures:normal;font-variant-caps:normal;font-variant-numeric:normal;font-feature-settings:normal;text-align:start;letter-spacing:0;word-spacing:0;writing-mode:lr-tb;text-anchor:start;fill:gray;fill-opacity:1;stroke:none;stroke-width:.26458332px;stroke-linecap:butt;stroke-linejoin:miter;stroke-opacity:1" transform="translate(227.237 -759.684)"><tspan x="-213.746" y="806.905" style="font-style:normal;font-variant:normal;font-weight:400;font-stretch:normal;font-size:3.52777767px;font-family:&quot;Arial Black&quot;;-inkscape-font-specification:&quot;Arial Black, Normal&quot;;font-variant-ligatures:normal;font-variant-caps:normal;font-variant-numeric:normal;font-feature-settings:normal;text-align:start;writing-mode:lr-tb;text-anchor:start;fill:gray;stroke-width:.26458332px">Pojos</tspan></text><text xml:space="preserve" x="-129.248" y="796.254" style="font-style:normal;font-variant:normal;font-weight:400;font-stretch:normal;font-size:3.52777767px;line-height:100%;font-family:&quot;Arial Black&quot;;-inkscape-font-specification:&quot;Arial Black, Normal&quot;;font-variant-ligatures:normal;font-variant-caps:normal;font-variant-numeric:normal;font-feature-settings:normal;text-align:start;letter-spacing:0;word-spacing:0;writing-mode:lr-tb;text-anchor:start;fill:#ff8c00;fill-opacity:1;stroke:none;stroke-width:.26458332px;stroke-linecap:butt;stroke-linejoin:miter;stroke-opacity:1" transform="translate(227.237 -759.684)"><tspan x="-129.248" y="796.254">wndb</tspan></text><text xml:space="preserve" x="-149.931" y="772.26" style="font-style:normal;font-variant:normal;font-weight:400;font-stretch:normal;font-size:10.58333302px;line-height:1.25;font-family:&quot;Arial Black&quot;;-inkscape-font-specification:&quot;Arial Black, Normal&quot;;font-variant-ligatures:normal;font-variant-caps:normal;font-variant-numeric:normal;font-feature-settings:normal;text-align:start;letter-spacing:0;word-spacing:0;writing-mode:lr-tb;text-anchor:start;fill:#b3b3b3;fill-opacity:1;stroke:none;stroke-width:.26458332" transform="translate(227.237 -759.684)"><tspan x="-149.931" y="772.26" style="font-style:normal;font-variant:normal;font-weight:400;font-stretch:normal;font-size:10.58333302px;font-family:&quot;Arial Black&quot;;-inkscape-font-specification:&quot;Arial Black, Normal&quot;;font-variant-ligatures:normal;font-variant-caps:normal;font-variant-numeric:normal;font-feature-settings:normal;text-align:start;writing-mode:lr-tb;text-anchor:start;fill:#b3b3b3;stroke-width:.26458332">Parse</tspan></text></svg>